<svg id="BAFFI" width="180" height="41" xmlns="http://www.w3.org/2000/svg" style="display: block;">
    <g fill="#000000" fill-opacity="1" stroke="none" transform="translate(0,-135), scale(1)">
        <path  d="M159.23 144.17C151.31 152.28 144.49 150.08 134.57 142.18C129.35 138.02 124.42 136.09 119.18 136.09C112.52 136.09 107.94 140.24 105.1 142.97C102.25 140.24 97.67 136.09 91.02 136.09C85.91 136.09 81 137.95 75.8 142.04C65.73 149.97 58.81 152.2 50.96 144.17C49.93 143.11 48.45 142.84 47.18 143.49C45.91 144.12 45.1 145.56 45.09 147.13C45.01 170.22 63.55 176.15 83.98 176.15C92.92 176.15 100.36 173.7 105.1 169.3C109.83 173.7 117.27 176.15 126.22 176.15C146.6 176.15 165.18 170.25 165.11 147.13C165.1 145.56 164.28 144.12 163.01 143.49C161.75 142.85 160.27 143.11 159.23 144.17Z"/>
    </g>
</svg>