<svg id="CAPELLI" width="180" height="82" xmlns="http://www.w3.org/2000/svg" style="display: block;">
    <g fill="#000000" stroke="none" fill-opacity="1"  transform="translate(0,-20), scale(1)">
        <path id="capelli" d="M166.09 112.23C162.67 101.9 155.43 86.58 141.07 76.82C126.41 66.86 107.82 65.12 86.01 71.59C79.93 72.68 73.72 72.6 67.66 71.35C67.53 71.34 67.4 71.34 67.28 71.35C67.09 71.33 66.91 71.33 66.72 71.35C66.55 71.39 66.38 71.44 66.21 71.52C66.08 71.55 65.95 71.59 65.83 71.64C59.02 75.58 44.29 87.33 44.17 115.2C37.31 104.78 26.55 82.09 34.44 50.07C35.98 52.08 37.69 53.94 39.53 55.64C57.23 71.58 82.27 60.06 98.68 52.5C137.11 37.95 157.51 60.51 167.85 81.99C167.95 82.15 168.06 82.3 168.19 82.44C168.66 92.42 167.95 102.43 166.09 112.23ZM52.52 56.73C50.76 48.65 52.64 37.55 58.2 23.63C60.94 28.5 65.77 35.13 72.5 36.84C77.72 38.16 83.02 36.37 88.24 31.52C104.78 16.13 128.08 16.16 146.19 31.59C156.85 41.08 164.04 54.25 166.51 68.8C154.94 51.32 133.46 33.38 96.74 47.27C84.34 52.98 66.82 61.03 52.52 56.73Z"></path>
    </g>
</svg>