<svg id="OCCHI" version="1.0" xmlns="http://www.w3.org/2000/svg" width="180" height="36" style="display: block;">

<g fill="#000000" fill-opacity="1" stroke="none"  transform="translate(0,-90), scale(1)" >
    <path id="sopraccigliaDx" d="M121.8 97.39C121.8 99.14 122.37 100.5 123.34 100.89C125.17 101.57 146.28 99.33 149.56 98.17C153.22 96.81 151.78 90.3 147.92 90.59C147.05 90.68 141.85 91.27 136.26 92.04C121.89 93.89 121.8 93.89 121.8 97.39Z"></path>
    <path id="sopraccigliaSx" d="M54.5 99.04C55.28 99.82 59.81 100.21 68.39 100.21C82.27 100.21 84 99.53 82.85 94.86C82.81 94.7 82.62 93.89 82.27 92.43C73.94 92.43 69.31 92.43 68.39 92.43C60.87 92.43 54.31 92.73 54.02 93.11C52.96 94.18 53.25 97.78 54.5 99.04Z"></path>
    <path id="occhioSx" d="M64.53 124.21C67.52 127.22 69.06 127.03 72.05 123.43C77.06 117.41 74.56 104.09 68.29 104.09C67.04 104.09 65.3 104.77 64.53 105.55C60.48 109.63 60.48 120.13 64.53 124.21Z"></path>
    <path id="occhioDx" d="M131.92 122.17C134.33 126.64 136.83 127.22 139.92 124.21C143.39 120.71 143.97 111.87 141.17 107.2C138.86 103.51 135.58 103.12 132.88 106.04C130.28 108.95 129.7 118.09 131.92 122.17Z"></path>
</g>
</svg>
