<svg version="1.1" xmlns="http://www.w3.org/2000/svg" xmlns:xlink="http://www.w3.org/1999/xlink"  style="border: solid;" preserveAspectRatio="xMidYMid meet" width="180" height="280">
   
        <path id="baffi" opacity="1" fill="#000000" fill-opacity="1"  d="M60.01 122.97C57.16 120.24 52.58 116.09 45.93 116.09C40.82 116.09 35.91 117.95 30.71 122.04C20.64 129.97 13.72 132.2 5.87 124.17C4.84 123.11 3.36 122.84 2.09 123.49C0.82 124.12 0.01 125.56 0 127.13C-0.08 150.22 18.46 156.15 38.89 156.15C47.83 156.15 55.27 153.7 60.01 149.3C64.74 153.7 72.18 156.15 81.13 156.15C101.51 156.15 120.09 150.25 120.02 127.13C120.01 125.56 119.19 124.12 117.92 123.49C116.66 122.85 115.18 123.11 114.14 124.17C106.22 132.28 99.4 130.08 89.48 122.18C84.26 118.02 79.33 116.09 74.09 116.09C67.43 116.09 62.85 120.24 60.01 122.97Z"></path> 
        <!-- <path id="pizzetto" opacity="1" fill="#000000" fill-opacity="1" d="M115.19 183.99C111.45 183.11 108.04 181.77 105.08 179.95C102.12 181.77 98.73 183.1 95 183.99C96.12 190.78 99.57 196.92 105.08 200.7C110.6 196.91 114.08 190.8 115.19 183.99Z"></path> -->
        <path id="barba" opacity="1" fill="#000000" fill-opacity="1" d="M9.46 194.73C9.46 205.07 15.53 214.18 23.92 217.46C24.88 227.29 30.66 236.3 39.2 240.08C42.64 241.6 47.82 244.31 52.97 250.18C53.66 250.96 54.56 251.35 55.46 251.35C56.36 251.35 57.26 250.96 57.95 250.18C61.88 245.7 66.06 242.63 71.51 240.21C80.07 236.4 85.9 227.36 86.96 217.47C95.36 214.18 101.22 205.07 101.22 194.73C101.22 192.21 100.89 189.76 100.22 187.41C105.3 182.13 108.49 174.6 108.49 166.69C108.49 162.99 107.78 159.45 106.6 156.16C99.23 160.51 89.18 162.69 76.58 162.69C75.22 162.69 73.93 162.56 72.63 162.47C71.14 172.47 65.66 181.39 57.03 186.3C56.54 186.58 56 186.72 55.46 186.72C54.92 186.72 54.38 186.58 53.88 186.3C45.27 181.4 39.88 172.44 38.38 162.46C37.05 162.56 35.73 162.69 34.34 162.69C21.72 162.69 11.67 160.51 4.29 156.15C3.11 159.45 2.42 163 2.42 166.69C2.42 174.6 5.38 182.13 10.46 187.41C9.79 189.76 9.46 192.21 9.46 194.73Z"></path>
        <path id="capelli" opacity="1" fill="#000000" fill-opacity="1" d="M35.99 51.35C35.86 51.34 35.73 51.34 35.61 51.35C35.42 51.33 35.24 51.33 35.05 51.35C34.88 51.39 34.71 51.44 34.54 51.52C34.41 51.55 34.28 51.59 34.16 51.64C27.35 55.58 12.62 67.33 12.5 95.2C5.64 84.78 -5.12 62.09 2.77 30.07C4.31 32.08 6.02 33.94 7.86 35.64C25.56 51.58 50.6 40.06 67.01 32.5C105.44 17.95 125.84 40.51 136.18 61.99C136.28 62.15 136.39 62.3 136.52 62.44C136.99 72.42 136.28 82.43 134.42 92.23C131 81.9 123.76 66.58 109.4 56.82C94.74 46.86 76.15 45.12 54.34 51.59C48.26 52.68 42.05 52.6 35.99 51.35ZM56.57 11.52C73.11 -3.87 96.41 -3.84 114.52 11.59C125.18 21.08 132.37 34.25 134.84 48.8C123.27 31.32 101.79 13.38 65.07 27.27C52.67 32.98 35.15 41.03 20.85 36.73C19.09 28.65 20.97 17.55 26.53 3.63C29.27 8.5 34.1 15.13 40.83 16.84C46.05 18.16 51.35 16.37 56.57 11.52Z"></path>
        <path id="sopraccigliaDx" opacity="1" fill="#000000" fill-opacity="1" d="M91.67 80.89C93.5 81.57 114.61 79.33 117.89 78.17C121.55 76.81 120.11 70.3 116.25 70.59C115.38 70.68 110.18 71.27 104.59 72.04C90.22 73.89 90.13 73.89 90.13 77.39C90.13 79.14 90.7 80.5 91.67 80.89Z"></path>
        <path id="sopraccigliaSx" opacity="1" fill="#000000" fill-opacity="1" d="M36.72 80.21C50.6 80.21 52.33 79.53 51.18 74.86C51.14 74.7 50.95 73.89 50.6 72.43C42.27 72.43 37.64 72.43 36.72 72.43C29.2 72.43 22.64 72.73 22.35 73.11C21.29 74.18 21.58 77.78 22.83 79.04C23.61 79.82 28.14 80.21 36.72 80.21Z"></path>
        <path id="occhioSx"  opacity="1" fill="#000000" fill-opacity="1" d="M40.38 103.43C45.39 97.41 42.89 84.09 36.62 84.09C35.37 84.09 33.63 84.77 32.86 85.55C28.81 89.63 28.81 100.13 32.86 104.21C35.85 107.22 37.39 107.03 40.38 103.43Z"></path>
        <path id="occhioDx" opacity="1" fill="#000000" fill-opacity="1" d="M108.25 104.21C111.72 100.71 112.3 91.87 109.5 87.2C107.19 83.51 103.91 83.12 101.21 86.04C98.61 88.95 98.03 98.09 100.25 102.17C102.66 106.64 105.16 107.22 108.25 104.21Z"></path>

</svg>