<svg version="1.1" xmlns="http://www.w3.org/2000/svg" xmlns:xlink="http://www.w3.org/1999/xlink"  preserveAspectRatio="xMidYMid meet" >
   
        <path id="baffi" opacity="1" fill="#000000" fill-opacity="1"  d="M102.9 122.18C97.68 118.02 92.75 116.09 87.51 116.09C80.85 116.09 76.27 120.24 73.43 122.97C70.58 120.24 66 116.09 59.35 116.09C54.24 116.09 49.33 117.95 44.13 122.04C34.06 129.97 27.14 132.2 19.29 124.17C18.26 123.11 16.78 122.84 15.51 123.49C14.24 124.12 13.43 125.56 13.42 127.13C13.34 150.22 31.88 156.15 52.31 156.15C61.25 156.15 68.69 153.7 73.43 149.3C78.16 153.7 85.6 156.15 94.55 156.15C114.93 156.15 133.51 150.25 133.44 127.13C133.43 125.56 132.61 124.12 131.34 123.49C130.08 122.85 128.6 123.11 127.56 124.17C119.64 132.28 112.82 130.08 102.9 122.18Z"></path> 
        <!-- <path id="pizzetto" opacity="1" fill="#000000" fill-opacity="1" d="M115.19 183.99C111.45 183.11 108.04 181.77 105.08 179.95C102.12 181.77 98.73 183.1 95 183.99C96.12 190.78 99.57 196.92 105.08 200.7C110.6 196.91 114.08 190.8 115.19 183.99Z"></path> -->
        <path id="barba" opacity="1" fill="#000000" fill-opacity="1" d="M21.46 187.41C20.79 189.76 20.46 192.21 20.46 194.73C20.46 205.07 26.53 214.18 34.92 217.46C35.88 227.29 41.66 236.3 50.2 240.08C53.64 241.6 58.82 244.31 63.97 250.18C64.66 250.96 65.56 251.35 66.46 251.35C67.36 251.35 68.26 250.96 68.95 250.18C72.88 245.7 77.06 242.63 82.51 240.21C91.07 236.4 96.9 227.36 97.96 217.47C106.36 214.18 112.22 205.07 112.22 194.73C112.22 192.21 111.89 189.76 111.22 187.41C116.3 182.13 119.49 174.6 119.49 166.69C119.49 162.99 118.78 159.45 117.6 156.16C110.23 160.51 100.18 162.69 87.58 162.69C86.22 162.69 84.93 162.56 83.63 162.47C82.14 172.47 76.66 181.39 68.03 186.3C67.54 186.58 67 186.72 66.46 186.72C65.92 186.72 65.38 186.58 64.88 186.3C56.27 181.4 50.88 172.44 49.38 162.46C48.05 162.56 46.73 162.69 45.34 162.69C32.72 162.69 22.67 160.51 15.29 156.15C14.11 159.45 13.42 163 13.42 166.69C13.42 174.6 16.38 182.13 21.46 187.41Z"></path> 
        <path id="capelli" opacity="1" fill="#000000" fill-opacity="1" d="M109.4 56.82C94.74 46.86 76.15 45.12 54.34 51.59C48.26 52.68 42.05 52.6 35.99 51.35C35.86 51.34 35.73 51.34 35.61 51.35C35.42 51.33 35.24 51.33 35.05 51.35C34.88 51.39 34.71 51.44 34.54 51.52C34.41 51.55 34.28 51.59 34.16 51.64C27.35 55.58 12.62 67.33 12.5 95.2C5.64 84.78 -5.12 62.09 2.77 30.07C4.31 32.08 6.02 33.94 7.86 35.64C25.56 51.58 50.6 40.06 67.01 32.5C105.44 17.95 125.84 40.51 136.18 61.99C136.28 62.15 136.39 62.3 136.52 62.44C136.99 72.42 136.28 82.43 134.42 92.23C131 81.9 123.76 66.58 109.4 56.82ZM26.53 3.63C29.27 8.5 34.1 15.13 40.83 16.84C46.05 18.16 51.35 16.37 56.57 11.52C73.11 -3.87 96.41 -3.84 114.52 11.59C125.18 21.08 132.37 34.25 134.84 48.8C123.27 31.32 101.79 13.38 65.07 27.27C52.67 32.98 35.15 41.03 20.85 36.73C19.09 28.65 20.97 17.55 26.53 3.63Z"></path>
        <path id="sopraccigliaDx" opacity="1" fill="#000000" fill-opacity="1" d="M91.67 80.89C93.5 81.57 114.61 79.33 117.89 78.17C121.55 76.81 120.11 70.3 116.25 70.59C115.38 70.68 110.18 71.27 104.59 72.04C90.22 73.89 90.13 73.89 90.13 77.39C90.13 79.14 90.7 80.5 91.67 80.89Z"></path>
        <path id="sopraccigliaSx" opacity="1" fill="#000000" fill-opacity="1" d="M36.72 80.21C50.6 80.21 52.33 79.53 51.18 74.86C51.14 74.7 50.95 73.89 50.6 72.43C42.27 72.43 37.64 72.43 36.72 72.43C29.2 72.43 22.64 72.73 22.35 73.11C21.29 74.18 21.58 77.78 22.83 79.04C23.61 79.82 28.14 80.21 36.72 80.21Z"></path>
        <path id="occhioSx"  opacity="1" fill="#000000" fill-opacity="1" d="M40.38 103.43C45.39 97.41 42.89 84.09 36.62 84.09C35.37 84.09 33.63 84.77 32.86 85.55C28.81 89.63 28.81 100.13 32.86 104.21C35.85 107.22 37.39 107.03 40.38 103.43Z"></path>
        <path id="occhioDx" opacity="1" fill="#000000" fill-opacity="1" d="M108.25 104.21C111.72 100.71 112.3 91.87 109.5 87.2C107.19 83.51 103.91 83.12 101.21 86.04C98.61 88.95 98.03 98.09 100.25 102.17C102.66 106.64 105.16 107.22 108.25 104.21Z"></path>

</svg>