<svg version="1.1" xmlns="http://www.w3.org/2000/svg" xmlns:xlink="http://www.w3.org/1999/xlink" style="border: solid;" preserveAspectRatio="xMidYMid meet" width="180" height="280">
   
        <path id="baffi" opacity="1" fill="#000000" fill-opacity="1"  d="M159.23 144.17C151.31 152.28 144.49 150.08 134.57 142.18C129.35 138.02 124.42 136.09 119.18 136.09C112.52 136.09 107.94 140.24 105.1 142.97C102.25 140.24 97.67 136.09 91.02 136.09C85.91 136.09 81 137.95 75.8 142.04C65.73 149.97 58.81 152.2 50.96 144.17C49.93 143.11 48.45 142.84 47.18 143.49C45.91 144.12 45.1 145.56 45.09 147.13C45.01 170.22 63.55 176.15 83.98 176.15C92.92 176.15 100.36 173.7 105.1 169.3C109.83 173.7 117.27 176.15 126.22 176.15C146.6 176.15 165.18 170.25 165.11 147.13C165.1 145.56 164.28 144.12 163.01 143.49C161.75 142.85 160.27 143.11 159.23 144.17Z"></path> 


        <!-- <path id="pizzetto" opacity="1" fill="#000000" fill-opacity="1" d="M115.19 183.99C111.45 183.11 108.04 181.77 105.08 179.95C102.12 181.77 98.73 183.1 95 183.99C96.12 190.78 99.57 196.92 105.08 200.7C110.6 196.91 114.08 190.8 115.19 183.99Z"></path> -->

        <path id="barba" opacity="1" fill="#000000" fill-opacity="1" d="M53.93 178.7C52.75 182 52.06 185.55 52.06 189.24C52.06 197.15 55.02 204.68 60.1 209.96C59.43 212.31 59.1 214.76 59.1 217.28C59.1 227.62 65.17 236.73 73.56 240.01C74.52 249.84 80.3 258.85 88.84 262.63C92.28 264.15 97.46 266.86 102.61 272.73C103.3 273.51 104.2 273.9 105.1 273.9C106 273.9 106.9 273.51 107.59 272.73C111.52 268.25 115.7 265.18 121.15 262.76C129.71 258.95 135.54 249.91 136.6 240.02C145 236.73 150.86 227.62 150.86 217.28C150.86 214.76 150.53 212.31 149.86 209.96C154.94 204.68 158.13 197.15 158.13 189.24C158.13 185.54 157.42 182 156.24 178.71C148.87 183.06 138.82 185.24 126.22 185.24C124.86 185.24 123.57 185.11 122.27 185.02C120.78 195.02 115.3 203.94 106.67 208.85C106.18 209.13 105.64 209.27 105.1 209.27C104.56 209.27 104.02 209.13 103.52 208.85C94.91 203.95 89.52 194.99 88.02 185.01C86.69 185.11 85.37 185.24 83.98 185.24C71.36 185.24 61.31 183.06 53.93 178.7Z"></path>
        <path id="capelli" opacity="1" fill="#000000" fill-opacity="1" d="M166.09 112.23C162.67 101.9 155.43 86.58 141.07 76.82C126.41 66.86 107.82 65.12 86.01 71.59C79.93 72.68 73.72 72.6 67.66 71.35C67.53 71.34 67.4 71.34 67.28 71.35C67.09 71.33 66.91 71.33 66.72 71.35C66.55 71.39 66.38 71.44 66.21 71.52C66.08 71.55 65.95 71.59 65.83 71.64C59.02 75.58 44.29 87.33 44.17 115.2C37.31 104.78 26.55 82.09 34.44 50.07C35.98 52.08 37.69 53.94 39.53 55.64C57.23 71.58 82.27 60.06 98.68 52.5C137.11 37.95 157.51 60.51 167.85 81.99C167.95 82.15 168.06 82.3 168.19 82.44C168.66 92.42 167.95 102.43 166.09 112.23ZM52.52 56.73C50.76 48.65 52.64 37.55 58.2 23.63C60.94 28.5 65.77 35.13 72.5 36.84C77.72 38.16 83.02 36.37 88.24 31.52C104.78 16.13 128.08 16.16 146.19 31.59C156.85 41.08 164.04 54.25 166.51 68.8C154.94 51.32 133.46 33.38 96.74 47.27C84.34 52.98 66.82 61.03 52.52 56.73Z"></path>

        <path id="sopraccigliaDx" opacity="1" fill="#000000" fill-opacity="1" d="M121.8 97.39C121.8 99.14 122.37 100.5 123.34 100.89C125.17 101.57 146.28 99.33 149.56 98.17C153.22 96.81 151.78 90.3 147.92 90.59C147.05 90.68 141.85 91.27 136.26 92.04C121.89 93.89 121.8 93.89 121.8 97.39Z"></path>
        <path id="sopraccigliaSx" opacity="1" fill="#000000" fill-opacity="1" d="M54.5 99.04C55.28 99.82 59.81 100.21 68.39 100.21C82.27 100.21 84 99.53 82.85 94.86C82.81 94.7 82.62 93.89 82.27 92.43C73.94 92.43 69.31 92.43 68.39 92.43C60.87 92.43 54.31 92.73 54.02 93.11C52.96 94.18 53.25 97.78 54.5 99.04Z"></path>
        <path id="occhioSx"  opacity="1" fill="#000000" fill-opacity="1" d="M64.53 124.21C67.52 127.22 69.06 127.03 72.05 123.43C77.06 117.41 74.56 104.09 68.29 104.09C67.04 104.09 65.3 104.77 64.53 105.55C60.48 109.63 60.48 120.13 64.53 124.21Z"></path>
        <path id="occhioDx" opacity="1" fill="#000000" fill-opacity="1" d="M131.92 122.17C134.33 126.64 136.83 127.22 139.92 124.21C143.39 120.71 143.97 111.87 141.17 107.2C138.86 103.51 135.58 103.12 132.88 106.04C130.28 108.95 129.7 118.09 131.92 122.17Z"></path>

</svg>